<svg xmlns="http://www.w3.org/2000/svg" xmlns:xlink="http://www.w3.org/1999/xlink" width="1080" zoomAndPan="magnify" viewBox="0 0 810 809.999993" height="1080" preserveAspectRatio="xMidYMid meet" version="1.0"><defs><g/><clipPath id="id1"><path d="M 50 346 L 419.472656 346 L 419.472656 810 L 50 810 Z M 50 346 " clip-rule="nonzero"/></clipPath></defs><rect x="-81" width="972" fill="#ffffff" y="-80.999999" height="971.999992" fill-opacity="1"/><rect x="-81" width="972" fill="#ffffff" y="-80.999999" height="971.999992" fill-opacity="1"/><rect x="-81" width="972" fill="#ff66c4" y="-80.999999" height="971.999992" fill-opacity="1"/><g fill="#5ce1e6" fill-opacity="1"><g transform="translate(46.386268, 250.619072)"><g><path d="M 20.28125 0 L 5.40625 0 L 5.40625 -94.671875 L 20.28125 -94.671875 L 20.28125 -54.09375 L 37.1875 -54.09375 L 37.1875 -94.671875 L 52.34375 -94.671875 L 52.34375 0 L 37.1875 0 L 37.1875 -40.578125 L 20.28125 -40.578125 Z M 20.28125 0 "/></g></g></g><g fill="#5ce1e6" fill-opacity="1"><g transform="translate(104.13249, 250.619072)"><g><path d="M 5.40625 -94.671875 L 20.28125 -94.671875 L 20.28125 0 L 5.40625 0 Z M 5.40625 -94.671875 "/></g></g></g><g fill="#5ce1e6" fill-opacity="1"><g transform="translate(129.827533, 250.619072)"><g><path d="M 27.71875 -52.75 L 48.5625 -52.75 L 48.5625 -22.71875 C 48.5625 -15.050781 46.6875 -9.164062 42.9375 -5.0625 C 39.195312 -0.96875 33.675781 1.078125 26.375 1.078125 C 19.070312 1.078125 13.546875 -0.96875 9.796875 -5.0625 C 6.054688 -9.164062 4.1875 -15.050781 4.1875 -22.71875 L 4.1875 -71.953125 C 4.1875 -79.617188 6.054688 -85.5 9.796875 -89.59375 C 13.546875 -93.695312 19.070312 -95.75 26.375 -95.75 C 33.675781 -95.75 39.195312 -93.695312 42.9375 -89.59375 C 46.6875 -85.5 48.5625 -79.617188 48.5625 -71.953125 L 48.5625 -62.75 L 34.484375 -62.75 L 34.484375 -72.90625 C 34.484375 -76.332031 33.785156 -78.742188 32.390625 -80.140625 C 30.992188 -81.535156 29.125 -82.234375 26.78125 -82.234375 C 24.4375 -82.234375 22.5625 -81.535156 21.15625 -80.140625 C 19.757812 -78.742188 19.0625 -76.332031 19.0625 -72.90625 L 19.0625 -21.78125 C 19.0625 -18.351562 19.757812 -15.960938 21.15625 -14.609375 C 22.5625 -13.253906 24.4375 -12.578125 26.78125 -12.578125 C 29.125 -12.578125 30.992188 -13.253906 32.390625 -14.609375 C 33.785156 -15.960938 34.484375 -18.351562 34.484375 -21.78125 L 34.484375 -39.21875 L 27.71875 -39.21875 Z M 27.71875 -52.75 "/></g></g></g><g fill="#5ce1e6" fill-opacity="1"><g transform="translate(182.569986, 250.619072)"><g><path d="M 5.40625 -94.671875 L 20.28125 -94.671875 L 20.28125 0 L 5.40625 0 Z M 5.40625 -94.671875 "/></g></g></g><g fill="#5ce1e6" fill-opacity="1"><g transform="translate(208.265028, 250.619072)"><g><path d="M 20.28125 -54.78125 L 40.703125 -54.78125 L 40.703125 -41.25 L 20.28125 -41.25 L 20.28125 -13.53125 L 45.984375 -13.53125 L 45.984375 0 L 5.40625 0 L 5.40625 -94.671875 L 45.984375 -94.671875 L 45.984375 -81.15625 L 20.28125 -81.15625 Z M 20.28125 -54.78125 "/></g></g></g><g fill="#5ce1e6" fill-opacity="1"><g transform="translate(258.032271, 250.619072)"><g><path d="M 18.671875 -68.578125 L 18.671875 0 L 5.28125 0 L 5.28125 -94.671875 L 23.9375 -94.671875 L 39.21875 -38 L 39.21875 -94.671875 L 52.484375 -94.671875 L 52.484375 0 L 37.1875 0 Z M 18.671875 -68.578125 "/></g></g></g><g fill="#5ce1e6" fill-opacity="1"><g transform="translate(315.778508, 250.619072)"><g><path d="M 20.28125 -54.78125 L 40.703125 -54.78125 L 40.703125 -41.25 L 20.28125 -41.25 L 20.28125 -13.53125 L 45.984375 -13.53125 L 45.984375 0 L 5.40625 0 L 5.40625 -94.671875 L 45.984375 -94.671875 L 45.984375 -81.15625 L 20.28125 -81.15625 Z M 20.28125 -54.78125 "/></g></g></g><g fill="#5ce1e6" fill-opacity="1"><g transform="translate(365.545751, 250.619072)"><g/></g></g><g fill="#5ce1e6" fill-opacity="1"><g transform="translate(386.507511, 250.619072)"><g><path d="M 20.28125 -54.78125 L 40.703125 -54.78125 L 40.703125 -41.25 L 20.28125 -41.25 L 20.28125 -13.53125 L 45.984375 -13.53125 L 45.984375 0 L 5.40625 0 L 5.40625 -94.671875 L 45.984375 -94.671875 L 45.984375 -81.15625 L 20.28125 -81.15625 Z M 20.28125 -54.78125 "/></g></g></g><g fill="#5ce1e6" fill-opacity="1"><g transform="translate(436.274753, 250.619072)"><g/></g></g><g fill="#5ce1e6" fill-opacity="1"><g transform="translate(457.236513, 250.619072)"><g><path d="M 3.515625 -71.953125 C 3.515625 -79.617188 5.335938 -85.5 8.984375 -89.59375 C 12.640625 -93.695312 18.117188 -95.75 25.421875 -95.75 C 32.722656 -95.75 38.203125 -93.695312 41.859375 -89.59375 C 45.515625 -85.5 47.34375 -79.617188 47.34375 -71.953125 L 47.34375 -68.984375 L 33.265625 -68.984375 L 33.265625 -72.90625 C 33.265625 -76.332031 32.609375 -78.742188 31.296875 -80.140625 C 29.992188 -81.535156 28.171875 -82.234375 25.828125 -82.234375 C 23.484375 -82.234375 21.65625 -81.535156 20.34375 -80.140625 C 19.039062 -78.742188 18.390625 -76.332031 18.390625 -72.90625 C 18.390625 -69.65625 19.109375 -66.789062 20.546875 -64.3125 C 21.992188 -61.832031 23.800781 -59.488281 25.96875 -57.28125 C 28.132812 -55.070312 30.457031 -52.863281 32.9375 -50.65625 C 35.414062 -48.445312 37.734375 -46.035156 39.890625 -43.421875 C 42.054688 -40.804688 43.859375 -37.828125 45.296875 -34.484375 C 46.742188 -31.148438 47.46875 -27.226562 47.46875 -22.71875 C 47.46875 -15.050781 45.597656 -9.164062 41.859375 -5.0625 C 38.117188 -0.96875 32.597656 1.078125 25.296875 1.078125 C 17.992188 1.078125 12.46875 -0.96875 8.71875 -5.0625 C 4.976562 -9.164062 3.109375 -15.050781 3.109375 -22.71875 L 3.109375 -28.53125 L 17.171875 -28.53125 L 17.171875 -21.78125 C 17.171875 -18.351562 17.867188 -15.960938 19.265625 -14.609375 C 20.671875 -13.253906 22.546875 -12.578125 24.890625 -12.578125 C 27.234375 -12.578125 29.101562 -13.253906 30.5 -14.609375 C 31.894531 -15.960938 32.59375 -18.351562 32.59375 -21.78125 C 32.59375 -25.019531 31.867188 -27.878906 30.421875 -30.359375 C 28.984375 -32.835938 27.179688 -35.179688 25.015625 -37.390625 C 22.859375 -39.597656 20.539062 -41.804688 18.0625 -44.015625 C 15.582031 -46.234375 13.257812 -48.648438 11.09375 -51.265625 C 8.925781 -53.878906 7.117188 -56.851562 5.671875 -60.1875 C 4.234375 -63.519531 3.515625 -67.441406 3.515625 -71.953125 Z M 3.515625 -71.953125 "/></g></g></g><g fill="#5ce1e6" fill-opacity="1"><g transform="translate(507.815191, 250.619072)"><g><path d="M 53.5625 0 L 38.546875 0 L 35.96875 -17.171875 L 17.71875 -17.171875 L 15.140625 0 L 1.484375 0 L 16.640625 -94.671875 L 38.40625 -94.671875 Z M 19.609375 -30.03125 L 33.953125 -30.03125 L 26.78125 -77.90625 Z M 19.609375 -30.03125 "/></g></g></g><g fill="#5ce1e6" fill-opacity="1"><g transform="translate(562.856692, 250.619072)"><g><path d="M 19.609375 -94.671875 L 19.609375 -21.640625 C 19.609375 -18.210938 20.304688 -15.820312 21.703125 -14.46875 C 23.097656 -13.113281 24.972656 -12.4375 27.328125 -12.4375 C 29.671875 -12.4375 31.539062 -13.113281 32.9375 -14.46875 C 34.332031 -15.820312 35.03125 -18.210938 35.03125 -21.640625 L 35.03125 -94.671875 L 49.09375 -94.671875 L 49.09375 -22.59375 C 49.09375 -14.925781 47.222656 -9.039062 43.484375 -4.9375 C 39.742188 -0.832031 34.222656 1.21875 26.921875 1.21875 C 19.609375 1.21875 14.082031 -0.832031 10.34375 -4.9375 C 6.601562 -9.039062 4.734375 -14.925781 4.734375 -22.59375 L 4.734375 -94.671875 Z M 43.015625 -114.6875 L 29.21875 -99.671875 L 19.203125 -99.671875 L 28.40625 -114.6875 Z M 43.015625 -114.6875 "/></g></g></g><g fill="#5ce1e6" fill-opacity="1"><g transform="translate(616.681054, 250.619072)"><g><path d="M 5.40625 -94.671875 L 28.9375 -94.671875 C 36.425781 -94.671875 41.992188 -92.6875 45.640625 -88.71875 C 49.296875 -84.75 51.125 -78.9375 51.125 -71.28125 L 51.125 -23.390625 C 51.125 -15.734375 49.296875 -9.921875 45.640625 -5.953125 C 41.992188 -1.984375 36.425781 0 28.9375 0 L 5.40625 0 Z M 20.28125 -81.15625 L 20.28125 -13.53125 L 28.671875 -13.53125 C 31.015625 -13.53125 32.863281 -14.203125 34.21875 -15.546875 C 35.570312 -16.898438 36.25 -19.289062 36.25 -22.71875 L 36.25 -71.953125 C 36.25 -75.378906 35.570312 -77.769531 34.21875 -79.125 C 32.863281 -80.476562 31.015625 -81.15625 28.671875 -81.15625 Z M 20.28125 -81.15625 "/></g></g></g><g fill="#5ce1e6" fill-opacity="1"><g transform="translate(671.857742, 250.619072)"><g><path d="M 20.28125 -54.78125 L 40.703125 -54.78125 L 40.703125 -41.25 L 20.28125 -41.25 L 20.28125 -13.53125 L 45.984375 -13.53125 L 45.984375 0 L 5.40625 0 L 5.40625 -94.671875 L 45.984375 -94.671875 L 45.984375 -81.15625 L 20.28125 -81.15625 Z M 20.28125 -54.78125 "/></g></g></g><path fill="#e8e3f4" d="M 255.527344 458.667969 C 255.527344 458.667969 255.230469 460.214844 255.113281 460.855469 C 254.652344 463.417969 252.421875 465.277344 249.804688 465.277344 C 249.644531 465.277344 249.480469 465.273438 249.316406 465.253906 L 248.359375 465.167969 L 247.476562 465.089844 C 246.6875 456.78125 250.914062 441.226562 251.980469 437.46875 C 252.210938 437.582031 252.464844 437.691406 252.675781 437.804688 C 254.351562 438.691406 255.417969 439.5625 255.835938 440.429688 C 258.101562 445.089844 256.609375 452.9375 255.527344 458.667969 Z M 257.730469 439.507812 C 257.105469 438.226562 255.492188 437.007812 253.167969 435.855469 C 252.933594 435.738281 252.679688 435.625 252.433594 435.511719 L 252.601562 434.628906 C 252.601562 434.628906 226.027344 427.109375 212.738281 423.722656 C 199.453125 420.339844 191.304688 423.472656 188.800781 427.609375 C 186.289062 431.742188 184.160156 451.671875 188.425781 458.316406 C 192.6875 464.960938 246.582031 468.71875 246.582031 468.71875 L 247.144531 467.175781 L 248.238281 467.273438 L 249.125 467.355469 C 249.363281 467.375 249.59375 467.386719 249.828125 467.386719 C 253.453125 467.386719 256.546875 464.792969 257.1875 461.226562 C 257.308594 460.546875 257.445312 459.820312 257.59375 459.0625 C 258.734375 453.042969 260.300781 444.800781 257.730469 439.507812 Z M 249.570312 476.578125 C 247.160156 474.96875 241.753906 471.121094 236.804688 469.847656 C 226.734375 469.835938 216.304688 481.230469 214.496094 492.789062 C 213.695312 497.886719 214.800781 506.070312 216.875 509.707031 C 218.980469 511.980469 224.0625 512.289062 227.199219 513.636719 C 229.6875 515.65625 232.804688 516.84375 236.355469 516.847656 C 246.421875 516.859375 256.054688 507.503906 257.867188 495.949219 C 259.238281 487.199219 255.722656 479.710938 249.570312 476.578125 Z M 308.863281 772.863281 C 312.5 819.203125 314.730469 862.800781 313.75 893.410156 L 81.871094 892.40625 L 88.898438 817.125 L 84.296875 779.660156 C 79.808594 774.566406 75.886719 769.042969 72.835938 763.425781 C 59.472656 738.789062 43.226562 695.167969 32.6875 647.492188 C 16.75 575.398438 50.589844 558.828125 57.28125 557.40625 C 57.363281 557.390625 57.449219 557.386719 57.535156 557.367188 C 61.132812 555.328125 83.980469 542.742188 116.761719 532.699219 C 113.644531 530.304688 112.316406 526.5 113.503906 522.90625 C 117.828125 509.804688 126.191406 481.476562 123.605469 465.046875 C 115.859375 415.859375 139.136719 363.285156 172.214844 347.375 C 203.511719 332.316406 268.144531 383.273438 256.726562 425.78125 C 256.367188 427.128906 254.476562 427.078125 254.085938 425.746094 C 252.5625 420.570312 241.554688 424.761719 224.144531 421.714844 C 197.378906 417.03125 182.445312 415.757812 184.539062 452.175781 C 186.625 488.589844 190.175781 498.425781 212.53125 515.332031 L 216.636719 519.96875 C 260.351562 522.042969 283.132812 533.566406 283.132812 533.566406 C 283.132812 533.566406 283.152344 533.695312 283.179688 533.933594 C 289.132812 537.214844 319.308594 557.472656 343.027344 641.515625 C 343.027344 641.515625 370.125 632.929688 380.496094 645.8125 C 390.605469 658.355469 390.53125 791.261719 308.863281 772.863281 " fill-opacity="1" fill-rule="nonzero"/><g clip-path="url(#id1)"><path fill="#15253d" d="M 249.734375 444.179688 C 249.582031 443.988281 246.003906 439.472656 239.054688 439.472656 C 237.699219 439.472656 236.285156 439.65625 234.871094 440.015625 C 234.058594 440.21875 233.5625 441.042969 233.765625 441.863281 C 233.9375 442.539062 234.542969 443.011719 235.242188 443.011719 C 235.363281 443.011719 235.492188 442.996094 235.609375 442.964844 C 236.816406 442.660156 238 442.507812 239.128906 442.507812 C 244.472656 442.507812 247.21875 445.902344 247.332031 446.046875 C 247.625 446.417969 248.0625 446.632812 248.527344 446.632812 C 248.871094 446.632812 249.199219 446.519531 249.464844 446.308594 C 250.125 445.792969 250.246094 444.835938 249.734375 444.179688 Z M 210.019531 435.332031 C 208.660156 435.332031 207.246094 435.515625 205.828125 435.871094 C 205.429688 435.96875 205.097656 436.21875 204.890625 436.570312 C 204.679688 436.917969 204.625 437.328125 204.726562 437.71875 C 204.890625 438.398438 205.5 438.867188 206.195312 438.867188 C 206.320312 438.867188 206.445312 438.855469 206.570312 438.820312 C 207.773438 438.519531 208.957031 438.367188 210.085938 438.367188 C 215.441406 438.367188 218.179688 441.761719 218.292969 441.90625 C 218.585938 442.277344 219.019531 442.492188 219.488281 442.492188 C 219.832031 442.492188 220.15625 442.378906 220.425781 442.167969 C 221.085938 441.652344 221.207031 440.695312 220.6875 440.039062 C 220.542969 439.847656 216.964844 435.332031 210.019531 435.332031 Z M 244.257812 452.386719 C 243.996094 452.316406 243.730469 452.28125 243.460938 452.28125 C 242.027344 452.28125 240.777344 453.253906 240.414062 454.640625 C 240.203125 455.453125 240.320312 456.300781 240.746094 457.03125 C 241.171875 457.753906 241.851562 458.269531 242.664062 458.480469 C 242.929688 458.550781 243.195312 458.582031 243.464844 458.582031 C 244.894531 458.582031 246.148438 457.613281 246.507812 456.230469 C 246.949219 454.550781 245.9375 452.824219 244.257812 452.386719 Z M 215.042969 444.761719 C 214.777344 444.695312 214.511719 444.660156 214.246094 444.660156 C 212.8125 444.660156 211.558594 445.628906 211.199219 447.015625 C 210.988281 447.828125 211.101562 448.679688 211.53125 449.402344 C 211.957031 450.128906 212.636719 450.648438 213.449219 450.859375 C 213.710938 450.925781 213.980469 450.960938 214.246094 450.960938 C 215.679688 450.960938 216.929688 449.992188 217.292969 448.605469 C 217.507812 447.792969 217.390625 446.945312 216.964844 446.21875 C 216.539062 445.496094 215.855469 444.972656 215.042969 444.761719 Z M 175.472656 563.5 C 180.902344 564.253906 186.769531 564.691406 193.109375 564.691406 C 193.5625 564.691406 194.015625 564.683594 194.476562 564.679688 C 195.121094 564.675781 195.636719 564.148438 195.632812 563.5 C 195.628906 562.859375 195.105469 562.34375 194.464844 562.34375 C 194.460938 562.34375 194.453125 562.34375 194.453125 562.34375 C 184.816406 562.4375 176.277344 561.53125 168.746094 559.992188 C 143.644531 554.863281 129.816406 542.6875 124.464844 536.902344 C 122.71875 535.023438 121.859375 533.804688 121.816406 533.75 C 121.457031 533.214844 120.730469 533.074219 120.195312 533.4375 C 119.859375 533.667969 119.699219 534.039062 119.703125 534.425781 C 119.710938 534.644531 119.753906 534.863281 119.886719 535.0625 C 120.0625 535.324219 135.929688 558.023438 175.472656 563.5 Z M 209.257812 553.136719 C 208.703125 553.46875 208.519531 554.1875 208.851562 554.742188 C 209.066406 555.109375 209.460938 555.316406 209.855469 555.316406 C 210.0625 555.316406 210.265625 555.257812 210.453125 555.148438 C 221.429688 548.621094 221.007812 530.3125 220.558594 524.394531 C 220.480469 523.363281 220.40625 522.699219 220.382812 522.550781 C 220.304688 521.90625 219.71875 521.453125 219.078125 521.535156 C 218.789062 521.566406 218.546875 521.71875 218.363281 521.917969 C 218.144531 522.160156 218.019531 522.488281 218.0625 522.835938 C 218.09375 523.070312 220.835938 546.253906 209.257812 553.136719 Z M 179.03125 476.21875 C 182.363281 499.316406 188.746094 504.632812 189.054688 504.871094 C 189.269531 505.046875 189.523438 505.125 189.773438 505.125 C 190.113281 505.125 190.453125 504.976562 190.683594 504.6875 C 190.734375 504.625 190.757812 504.546875 190.796875 504.472656 C 195.050781 510.441406 201.730469 514.058594 212.53125 515.332031 L 212.933594 515.785156 C 216.199219 515.746094 219.460938 515.417969 222.585938 514.914062 C 217.855469 513.855469 215.953125 510.003906 214.621094 502.6875 C 210.734375 481.378906 231.652344 462.074219 232.546875 462.078125 L 230.015625 457.625 C 229.734375 457.128906 229.253906 456.789062 228.691406 456.6875 C 228.578125 456.667969 228.464844 456.660156 228.351562 456.660156 C 227.90625 456.660156 227.472656 456.816406 227.128906 457.097656 L 223.160156 460.402344 C 221.8125 461.527344 220.109375 462.144531 218.359375 462.144531 C 217.886719 462.144531 217.414062 462.101562 216.953125 462.015625 L 204.839844 459.695312 C 190.175781 463.582031 183.777344 479.828125 183.777344 479.828125 C 183.753906 479.871094 183.734375 479.910156 183.707031 479.953125 C 184.503906 487.71875 185.71875 494.207031 187.988281 499.445312 C 185.972656 495.726562 183.183594 488.613281 181.335938 475.769531 C 181.347656 475.738281 181.355469 475.703125 181.367188 475.675781 C 181.472656 475.304688 181.390625 474.929688 181.175781 474.644531 C 180.820312 472.015625 180.503906 469.160156 180.238281 466.050781 C 177.75 436.839844 182.0625 424.847656 189.699219 417.644531 C 189.847656 417.558594 189.972656 417.4375 190.074219 417.296875 C 190.746094 416.683594 191.445312 416.101562 192.164062 415.550781 C 203.679688 406.726562 220.234375 407.160156 226.8125 407.757812 C 239.3125 408.894531 250.421875 413.386719 256.519531 419.777344 C 256.859375 420.136719 257.371094 420.226562 257.804688 420.054688 C 257.9375 420 258.066406 419.925781 258.171875 419.816406 C 258.644531 419.375 258.660156 418.632812 258.210938 418.164062 C 258.144531 418.089844 258.058594 418.019531 257.988281 417.945312 C 255.964844 415.882812 253.476562 414.003906 250.601562 412.367188 C 245.183594 381.984375 231.136719 373.167969 230.535156 372.804688 C 229.980469 372.46875 229.265625 372.644531 228.933594 373.195312 C 228.601562 373.746094 228.773438 374.464844 229.324219 374.800781 C 229.457031 374.886719 242.519531 383.195312 247.964844 410.980469 C 242 408.089844 234.753906 406.132812 227.023438 405.429688 C 220.167969 404.804688 202.914062 404.367188 190.742188 413.699219 C 190.109375 414.183594 189.488281 414.6875 188.886719 415.214844 C 170.90625 406.152344 154.085938 383.382812 153.917969 383.152344 C 153.535156 382.628906 152.804688 382.515625 152.28125 382.898438 C 151.761719 383.28125 151.648438 384.011719 152.027344 384.535156 C 152.730469 385.484375 168.910156 407.402344 187.089844 416.921875 C 179.578125 424.664062 175.449219 437.363281 177.910156 466.25 C 178.132812 468.890625 178.394531 471.359375 178.6875 473.664062 C 172.566406 471.804688 153.234375 465.617188 146.71875 459.917969 C 146.230469 459.492188 145.496094 459.539062 145.070312 460.027344 C 144.644531 460.511719 144.691406 461.253906 145.175781 461.675781 C 152.5625 468.136719 174.285156 474.808594 179.03125 476.21875 Z M 183.980469 348.539062 C 185.394531 348.914062 196.660156 355.015625 204.246094 364.816406 C 204.476562 365.117188 204.824219 365.273438 205.171875 365.273438 C 205.421875 365.273438 205.671875 365.191406 205.886719 365.027344 C 206.398438 364.632812 206.488281 363.894531 206.097656 363.382812 C 198.105469 353.0625 185.777344 346.203125 184.089844 346.203125 C 183.445312 346.203125 182.917969 346.726562 182.917969 347.375 C 182.917969 347.980469 183.382812 348.480469 183.980469 348.539062 Z M 220.246094 495.722656 C 219.328125 501.59375 220.535156 507.246094 223.53125 511.410156 C 223.691406 511.640625 223.839844 511.878906 224.015625 512.097656 C 224.25 512.390625 224.589844 512.542969 224.933594 512.542969 C 224.984375 512.542969 225.035156 512.519531 225.09375 512.511719 C 225.292969 512.488281 225.488281 512.421875 225.660156 512.285156 C 225.671875 512.269531 225.679688 512.253906 225.695312 512.242188 C 226.160156 511.832031 226.234375 511.132812 225.84375 510.640625 C 222.886719 506.933594 221.6875 501.632812 222.558594 496.085938 C 224.277344 485.101562 233.398438 476.179688 242.890625 476.179688 C 242.898438 476.179688 242.90625 476.179688 242.910156 476.179688 C 243.535156 476.179688 244.03125 475.6875 244.070312 475.078125 C 244.070312 475.054688 244.082031 475.035156 244.082031 475.007812 C 244.085938 474.351562 243.496094 473.835938 242.890625 473.835938 C 232.296875 473.835938 222.140625 483.648438 220.246094 495.722656 Z M 226.808594 667.847656 C 221.628906 675.949219 206.316406 686.023438 206.164062 686.121094 C 205.625 686.476562 205.472656 687.203125 205.828125 687.742188 C 206.050781 688.085938 206.425781 688.269531 206.808594 688.269531 C 207.027344 688.269531 207.246094 688.210938 207.445312 688.082031 C 208.089844 687.660156 223.328125 677.628906 228.78125 669.109375 C 229.125 668.5625 228.96875 667.839844 228.421875 667.492188 C 227.875 667.140625 227.15625 667.300781 226.808594 667.847656 Z M 121.449219 645.609375 C 127.121094 662.363281 131.785156 679.304688 133.15625 684.378906 C 128.914062 683.972656 104.023438 681.953125 86.921875 688.410156 C 86.316406 688.640625 86.011719 689.3125 86.238281 689.917969 C 86.46875 690.519531 87.144531 690.828125 87.746094 690.597656 C 102.59375 684.996094 124.261719 686.042969 131.238281 686.570312 C 121.371094 694.019531 110.332031 702.886719 97.785156 713.652344 C 97.292969 714.070312 97.238281 714.808594 97.660156 715.300781 C 97.890625 715.570312 98.21875 715.707031 98.546875 715.707031 C 98.816406 715.707031 99.085938 715.613281 99.308594 715.421875 C 112.773438 703.871094 124.5 694.515625 134.890625 686.75 C 134.925781 686.746094 134.953125 686.738281 134.988281 686.730469 C 135.328125 686.644531 135.59375 686.410156 135.742188 686.117188 C 155.988281 671.058594 171.144531 662.085938 184.269531 654.675781 C 191.945312 650.347656 203.335938 644.820312 213.582031 646.792969 C 213.953125 646.867188 214.296875 646.746094 214.554688 646.515625 C 214.75 646.351562 214.898438 646.132812 214.953125 645.867188 C 215.058594 645.289062 214.71875 644.757812 214.183594 644.5625 C 214.132812 644.542969 214.085938 644.507812 214.023438 644.5 C 213.28125 644.351562 212.535156 644.253906 211.792969 644.175781 C 207.816406 643.769531 203.804688 644.273438 199.914062 645.316406 C 193.839844 646.9375 188.046875 649.859375 183.121094 652.640625 C 170.34375 659.851562 155.640625 668.550781 136.246094 682.839844 C 135.941406 683.0625 135.648438 683.273438 135.339844 683.5 C 135.332031 683.464844 135.320312 683.421875 135.3125 683.390625 C 132.796875 674.105469 121.480469 633.371094 111.507812 614.816406 C 111.203125 614.25 110.492188 614.035156 109.925781 614.339844 C 109.359375 614.644531 109.140625 615.355469 109.453125 615.929688 C 113.445312 623.363281 117.671875 634.445312 121.449219 645.609375 Z M 275.769531 770.375 C 275.726562 769.730469 275.152344 769.238281 274.523438 769.285156 C 273.878906 769.328125 273.390625 769.882812 273.433594 770.527344 C 273.492188 771.457031 279.316406 862.707031 281.382812 893.269531 C 281.40625 893.6875 281.4375 894.097656 281.464844 894.496094 C 281.507812 895.109375 282.019531 895.585938 282.628906 895.585938 C 282.65625 895.585938 282.679688 895.585938 282.707031 895.578125 C 283.351562 895.535156 283.839844 894.980469 283.796875 894.335938 C 283.773438 893.996094 283.75 893.636719 283.726562 893.28125 C 281.675781 862.890625 275.824219 771.3125 275.769531 770.375 Z M 278.109375 573.378906 C 278.171875 573.378906 278.230469 573.375 278.292969 573.367188 C 278.933594 573.265625 279.367188 572.667969 279.269531 572.03125 C 276.992188 557.398438 282.203125 537.578125 282.253906 537.382812 C 282.417969 536.757812 282.046875 536.117188 281.425781 535.953125 C 280.804688 535.789062 280.160156 536.152344 279.996094 536.777344 C 279.773438 537.609375 274.601562 557.265625 276.957031 572.394531 C 277.046875 572.96875 277.546875 573.378906 278.109375 573.378906 Z M 91.039062 583.675781 C 91.226562 584.066406 91.601562 584.292969 92.007812 584.320312 C 92.039062 584.324219 92.0625 584.332031 92.089844 584.332031 C 92.261719 584.332031 92.433594 584.292969 92.601562 584.210938 C 93.183594 583.929688 93.421875 583.230469 93.140625 582.648438 C 86.921875 569.890625 79.167969 562.144531 70.097656 559.628906 C 69.617188 559.496094 69.144531 559.394531 68.671875 559.292969 C 58.847656 557.199219 51.285156 561.984375 50.953125 562.199219 C 50.417969 562.546875 50.261719 563.269531 50.609375 563.8125 C 50.964844 564.355469 51.683594 564.507812 52.226562 564.160156 C 52.304688 564.109375 60.019531 559.242188 69.515625 561.890625 C 72.460938 562.71875 75.273438 564.171875 77.933594 566.230469 C 81.957031 569.332031 85.640625 573.832031 88.945312 579.699219 C 89.660156 580.964844 90.359375 582.285156 91.039062 583.675781 Z M 90.03125 813.824219 C 89.871094 813.203125 89.234375 812.824219 88.613281 812.980469 C 88.535156 813 88.472656 813.046875 88.402344 813.082031 C 87.910156 813.316406 87.625 813.851562 87.761719 814.402344 C 88.089844 815.6875 88.433594 816.984375 88.792969 818.285156 C 98.167969 852.632812 116.769531 890.03125 116.964844 890.417969 C 117.167969 890.832031 117.578125 891.066406 118.007812 891.066406 C 118.183594 891.066406 118.367188 891.027344 118.535156 890.945312 C 119.109375 890.65625 119.34375 889.949219 119.054688 889.375 C 118.855469 888.972656 98.933594 848.925781 90.03125 813.824219 Z M 373.039062 658.058594 C 372.800781 658.078125 372.574219 658.152344 372.378906 658.308594 C 371.917969 658.707031 371.855469 659.367188 372.191406 659.855469 C 372.210938 659.890625 372.222656 659.929688 372.246094 659.957031 C 377.53125 666.183594 375.015625 686.285156 374.988281 686.488281 C 374.90625 687.128906 375.359375 687.714844 376 687.796875 C 376.050781 687.804688 376.101562 687.808594 376.152344 687.808594 C 376.730469 687.808594 377.234375 687.378906 377.308594 686.789062 C 377.421875 685.917969 379.984375 665.449219 374.027344 658.449219 C 373.773438 658.144531 373.398438 658.027344 373.039062 658.058594 Z M 348.566406 676.558594 C 347.988281 676.269531 347.285156 676.503906 347 677.078125 C 344.601562 681.875 342.621094 694.296875 342.539062 694.820312 C 342.4375 695.457031 342.871094 696.054688 343.511719 696.160156 C 343.574219 696.167969 343.632812 696.171875 343.695312 696.171875 C 344.261719 696.171875 344.757812 695.761719 344.847656 695.1875 C 344.867188 695.0625 346.851562 682.597656 349.089844 678.128906 C 349.378906 677.546875 349.144531 676.847656 348.566406 676.558594 Z M 373.414062 634.0625 C 372.535156 634.105469 364.734375 634.488281 359.980469 634.488281 C 358.679688 634.488281 357.742188 634.457031 357.1875 634.402344 C 354.152344 634.082031 341.082031 629.480469 340.945312 629.433594 C 340.835938 629.394531 340.71875 629.378906 340.597656 629.378906 C 340.152344 629.378906 339.753906 629.660156 339.609375 630.078125 C 339.511719 630.34375 339.527344 630.625 339.648438 630.886719 C 339.773438 631.140625 339.984375 631.328125 340.253906 631.421875 C 341.632812 631.90625 353.8125 636.160156 356.964844 636.492188 C 357.589844 636.5625 358.621094 636.597656 360.027344 636.597656 C 365.046875 636.597656 373.441406 636.171875 373.527344 636.164062 C 373.808594 636.148438 374.066406 636.027344 374.257812 635.816406 C 374.441406 635.609375 374.539062 635.339844 374.523438 635.058594 C 374.492188 634.484375 374.035156 634.0625 373.414062 634.0625 Z M 355.242188 666.175781 C 355.160156 666.175781 355.078125 666.191406 355.003906 666.207031 C 354.011719 666.429688 352.957031 666.546875 351.867188 666.546875 C 344.707031 666.546875 337.863281 661.585938 337.796875 661.539062 C 337.617188 661.398438 337.394531 661.328125 337.167969 661.328125 C 336.835938 661.328125 336.527344 661.480469 336.320312 661.753906 C 335.980469 662.21875 336.074219 662.878906 336.539062 663.226562 C 336.65625 663.3125 339.414062 665.363281 343.375 666.917969 L 344.324219 673.570312 C 344.398438 674.089844 344.847656 674.476562 345.367188 674.476562 L 345.375 674.476562 L 345.511719 674.46875 C 345.792969 674.425781 346.039062 674.277344 346.210938 674.054688 C 346.378906 673.828125 346.453125 673.550781 346.410156 673.273438 L 345.613281 667.691406 C 347.757812 668.332031 349.839844 668.65625 351.808594 668.65625 C 353.070312 668.65625 354.300781 668.523438 355.46875 668.261719 C 355.746094 668.199219 355.976562 668.03125 356.128906 667.796875 C 356.277344 667.558594 356.324219 667.273438 356.265625 667 C 356.152344 666.515625 355.730469 666.175781 355.242188 666.175781 Z M 195.835938 425.5 L 188.957031 424.714844 C 184.472656 431.355469 181.890625 440.355469 181.976562 451.898438 L 189.113281 455.042969 C 187.972656 453.71875 187.28125 452.011719 187.277344 450.164062 C 187.246094 444.832031 187.679688 437.269531 189.878906 431.539062 C 190.964844 428.714844 193.140625 426.597656 195.835938 425.5 Z M 218.367188 460.042969 C 219.621094 460.042969 220.84375 459.59375 221.8125 458.785156 L 225.78125 455.480469 C 226.503906 454.882812 227.410156 454.550781 228.347656 454.550781 C 228.585938 454.550781 228.828125 454.574219 229.070312 454.617188 C 230.242188 454.832031 231.253906 455.546875 231.84375 456.582031 L 234.699219 461.605469 C 234.941406 462.03125 235.238281 462.40625 235.574219 462.742188 C 236.441406 463.101562 237.265625 463.585938 237.949219 464.132812 C 238.261719 464.21875 238.582031 464.285156 238.90625 464.316406 L 240.46875 464.457031 C 238.398438 460.214844 237.746094 453.023438 233.421875 450.167969 C 227.527344 446.28125 213.855469 454.425781 206.722656 458.066406 L 217.34375 459.945312 C 217.683594 460.007812 218.027344 460.042969 218.367188 460.042969 Z M 239.988281 466.527344 C 241.566406 468.84375 242.832031 471.308594 243.828125 473.859375 C 243.910156 473.886719 244 473.914062 244.085938 473.945312 C 243.394531 471.519531 242.535156 469.085938 241.488281 466.667969 Z M 415.753906 533.0625 L 405.679688 532.578125 L 349.394531 529.847656 L 338.46875 529.324219 C 337.136719 529.253906 335.867188 529.875 335.097656 530.964844 L 311.226562 564.667969 L 290.636719 593.738281 L 280.890625 607.496094 L 277.421875 612.398438 L 277.304688 612.261719 C 272.6875 606.980469 265.984375 603.949219 258.917969 603.949219 L 238.113281 604.28125 C 237.535156 604.289062 237.070312 604.773438 237.074219 605.355469 C 237.085938 605.917969 237.550781 606.371094 238.144531 606.386719 L 259.136719 606.054688 C 265.460938 606.054688 271.5 608.824219 275.71875 613.648438 L 276.167969 614.164062 L 271.523438 620.722656 C 269.472656 619.414062 267.164062 618.535156 264.742188 618.171875 L 237.96875 614.152344 C 237.441406 614.152344 236.996094 614.53125 236.917969 615.050781 C 236.832031 615.621094 237.230469 616.160156 237.804688 616.246094 L 264.433594 620.253906 C 266.527344 620.566406 268.523438 621.316406 270.308594 622.441406 L 263.546875 631.992188 C 249.90625 627.269531 239.597656 626.871094 239.46875 626.863281 C 238.894531 626.863281 238.433594 627.3125 238.414062 627.886719 C 238.394531 628.464844 238.851562 628.953125 239.433594 628.96875 C 239.550781 628.972656 249.292969 629.375 262.28125 633.777344 L 233.003906 675.113281 L 215.886719 699.285156 C 213.941406 702.03125 216.15625 705.785156 219.503906 705.414062 L 233.953125 703.796875 C 231.8125 706.347656 221.832031 718.164062 209.089844 732.816406 C 189.753906 755.039062 164.089844 783.746094 149.824219 796.382812 C 146.804688 799.058594 144.292969 801.015625 142.464844 802.035156 C 141.523438 802.5625 140.585938 803.035156 139.644531 803.480469 C 131.46875 807.347656 123.328125 808.15625 115.417969 805.863281 C 101.6875 801.886719 91.882812 789.523438 87.683594 783.316406 C 86.21875 781.148438 85.429688 779.726562 85.402344 779.667969 C 85.105469 779.121094 84.433594 778.921875 83.875 779.183594 C 83.859375 779.191406 83.839844 779.191406 83.816406 779.199219 C 83.25 779.511719 83.039062 780.21875 83.347656 780.789062 C 83.433594 780.953125 83.898438 781.796875 84.71875 783.09375 C 88.335938 788.835938 98.886719 803.503906 114.753906 808.109375 C 117.921875 809.027344 121.117188 809.484375 124.328125 809.484375 C 130.707031 809.484375 137.15625 807.679688 143.605469 804.082031 C 160.792969 794.484375 233.109375 708.445312 236.179688 704.789062 C 236.484375 704.425781 236.527344 703.9375 236.335938 703.535156 L 301.9375 696.210938 L 302.75 696.121094 L 305.316406 731.367188 L 308.0625 769.03125 C 308.09375 769.421875 308.320312 769.734375 308.632812 769.929688 C 308.808594 770.035156 309.003906 770.113281 309.230469 770.113281 C 309.257812 770.113281 309.285156 770.113281 309.316406 770.113281 C 309.960938 770.066406 310.441406 769.503906 310.394531 768.863281 L 305.074219 695.859375 L 312.453125 695.035156 C 313.589844 694.910156 314.617188 694.285156 315.253906 693.335938 L 329.703125 671.824219 C 329.234375 671.671875 328.972656 671.582031 328.972656 671.582031 L 335.203125 661.421875 C 329.371094 658.351562 326.179688 655.207031 324.464844 652.953125 C 327.089844 653.789062 344.722656 659.210938 360.609375 659.210938 C 362 659.210938 363.367188 659.167969 364.675781 659.085938 C 365.253906 659.046875 365.695312 658.542969 365.65625 657.964844 C 365.617188 657.351562 365.066406 656.980469 364.539062 656.980469 C 363.277344 657.0625 361.949219 657.105469 360.59375 657.105469 C 343.761719 657.105469 324.972656 650.90625 324.785156 650.84375 C 324.675781 650.808594 324.566406 650.789062 324.457031 650.789062 C 324.003906 650.789062 323.613281 651.074219 323.464844 651.492188 C 322.8125 650.417969 322.605469 649.753906 322.605469 649.753906 C 321.445312 643.445312 324.089844 640.992188 325.265625 640.230469 C 325.246094 640.441406 325.265625 640.652344 325.367188 640.839844 C 325.5 641.085938 325.722656 641.269531 325.988281 641.347656 C 326.804688 641.59375 346.058594 647.332031 361.519531 647.332031 C 366.378906 647.332031 370.410156 646.761719 373.5 645.640625 C 373.765625 645.539062 373.972656 645.351562 374.09375 645.09375 C 374.210938 644.839844 374.226562 644.554688 374.128906 644.289062 C 373.976562 643.875 373.582031 643.59375 373.136719 643.59375 C 373.011719 643.59375 372.894531 643.617188 372.777344 643.660156 C 369.957031 644.683594 366.214844 645.203125 361.660156 645.203125 C 346.3125 645.203125 326.789062 639.390625 326.597656 639.332031 C 326.496094 639.304688 326.398438 639.289062 326.296875 639.289062 C 326.136719 639.289062 325.984375 639.339844 325.847656 639.402344 C 326.773438 629.621094 339.71875 629.800781 339.71875 629.800781 L 341.601562 624.152344 C 343.800781 618.375 360.152344 620.832031 363.554688 621.40625 L 418.804688 539.136719 C 420.496094 536.613281 418.789062 533.214844 415.753906 533.0625 Z M 257.140625 593.453125 L 238 588.304688 C 237.976562 588.363281 237.960938 588.417969 237.933594 588.472656 C 237.65625 588.996094 237.058594 589.257812 236.484375 589.113281 L 219.046875 584.777344 C 218.3125 584.589844 217.921875 583.839844 218.128906 583.15625 C 216.960938 583.257812 215.910156 584.015625 215.492188 585.171875 L 215.058594 586.375 C 214.449219 588.070312 215.40625 589.917969 217.144531 590.398438 L 245.179688 598.066406 Z M 189.292969 424.226562 C 197.847656 412.035156 212.953125 408.035156 229.597656 410.941406 C 240.371094 412.828125 246.605469 416.070312 250.152344 419.492188 C 247.308594 420.976562 244.609375 426.175781 238.558594 427.359375 C 233.492188 428.347656 225.699219 426.550781 219.714844 427.382812 C 213.425781 426.351562 207.277344 425.496094 202.042969 424.828125 C 201.96875 424.773438 193.125 421.273438 189.292969 424.226562 " fill-opacity="1" fill-rule="nonzero"/></g><path fill="#3e986c" d="M 373.414062 634.0625 C 372.535156 634.105469 364.734375 634.488281 359.980469 634.488281 C 358.679688 634.488281 357.742188 634.457031 357.1875 634.402344 C 354.152344 634.082031 341.082031 629.480469 340.945312 629.433594 C 340.835938 629.394531 340.71875 629.378906 340.597656 629.378906 C 340.152344 629.378906 339.753906 629.660156 339.609375 630.078125 C 339.511719 630.34375 339.527344 630.625 339.648438 630.886719 C 339.773438 631.140625 339.984375 631.328125 340.253906 631.421875 C 341.632812 631.90625 353.8125 636.160156 356.964844 636.492188 C 357.589844 636.5625 358.621094 636.597656 360.027344 636.597656 C 365.046875 636.597656 373.441406 636.171875 373.527344 636.164062 C 373.808594 636.148438 374.066406 636.027344 374.257812 635.816406 C 374.441406 635.609375 374.539062 635.339844 374.523438 635.058594 C 374.492188 634.484375 374.035156 634.0625 373.414062 634.0625 Z M 356.265625 667 C 356.152344 666.515625 355.730469 666.175781 355.242188 666.175781 C 355.160156 666.175781 355.078125 666.191406 355.003906 666.207031 C 354.011719 666.429688 352.957031 666.546875 351.867188 666.546875 C 344.707031 666.546875 337.863281 661.585938 337.796875 661.539062 C 337.617188 661.398438 337.394531 661.328125 337.167969 661.328125 C 336.835938 661.328125 336.527344 661.480469 336.320312 661.753906 C 335.980469 662.21875 336.074219 662.878906 336.539062 663.226562 C 336.65625 663.3125 339.414062 665.363281 343.375 666.917969 L 344.324219 673.570312 C 344.398438 674.089844 344.847656 674.476562 345.367188 674.476562 L 345.375 674.476562 L 345.511719 674.46875 C 345.792969 674.425781 346.039062 674.277344 346.210938 674.054688 C 346.378906 673.828125 346.453125 673.550781 346.410156 673.273438 L 345.613281 667.691406 C 347.757812 668.332031 349.839844 668.65625 351.808594 668.65625 C 353.070312 668.65625 354.300781 668.523438 355.46875 668.261719 C 355.746094 668.199219 355.976562 668.03125 356.128906 667.796875 C 356.277344 667.558594 356.324219 667.273438 356.265625 667 Z M 376.933594 642.574219 C 376.71875 647.816406 375.203125 653.234375 373.039062 658.058594 C 372.800781 658.078125 372.574219 658.152344 372.378906 658.308594 C 371.917969 658.707031 371.855469 659.367188 372.191406 659.855469 C 370.042969 664.179688 367.417969 667.902344 364.84375 670.421875 C 355.558594 679.488281 333.925781 673.175781 329.703125 671.824219 C 329.234375 671.671875 328.972656 671.582031 328.972656 671.582031 L 335.203125 661.421875 C 329.371094 658.351562 326.179688 655.207031 324.464844 652.953125 C 327.089844 653.789062 344.722656 659.210938 360.609375 659.210938 C 362 659.210938 363.367188 659.167969 364.675781 659.085938 C 365.253906 659.046875 365.695312 658.542969 365.65625 657.964844 C 365.617188 657.351562 365.066406 656.980469 364.539062 656.980469 C 363.277344 657.0625 361.949219 657.105469 360.59375 657.105469 C 343.761719 657.105469 324.972656 650.90625 324.785156 650.84375 C 324.675781 650.808594 324.566406 650.789062 324.457031 650.789062 C 324.003906 650.789062 323.613281 651.074219 323.464844 651.492188 C 322.8125 650.417969 322.605469 649.753906 322.605469 649.753906 C 321.445312 643.445312 324.089844 640.992188 325.265625 640.230469 C 325.246094 640.441406 325.265625 640.652344 325.367188 640.839844 C 325.5 641.085938 325.722656 641.269531 325.988281 641.347656 C 326.804688 641.59375 346.058594 647.332031 361.519531 647.332031 C 366.378906 647.332031 370.410156 646.761719 373.5 645.640625 C 373.765625 645.539062 373.972656 645.351562 374.09375 645.09375 C 374.210938 644.839844 374.226562 644.554688 374.128906 644.289062 C 373.976562 643.875 373.582031 643.59375 373.136719 643.59375 C 373.011719 643.59375 372.894531 643.617188 372.777344 643.660156 C 369.957031 644.683594 366.214844 645.203125 361.660156 645.203125 C 346.3125 645.203125 326.789062 639.390625 326.597656 639.332031 C 326.496094 639.304688 326.398438 639.289062 326.296875 639.289062 C 326.136719 639.289062 325.984375 639.339844 325.847656 639.402344 C 326.773438 629.621094 339.71875 629.800781 339.71875 629.800781 L 341.601562 624.152344 C 343.800781 618.375 360.152344 620.832031 363.554688 621.40625 C 363.957031 621.476562 364.1875 621.519531 364.1875 621.519531 C 374.066406 625.675781 377.296875 633.878906 376.933594 642.574219 Z M 235.574219 462.742188 C 236.226562 463.402344 237.046875 463.882812 237.949219 464.132812 C 237.265625 463.585938 236.441406 463.101562 235.574219 462.742188 Z M 222.585938 514.914062 C 224.886719 515.429688 227.234375 515.46875 229.519531 515.195312 C 228.691406 514.757812 227.925781 514.226562 227.199219 513.636719 C 226.460938 513.316406 225.757812 512.9375 225.09375 512.511719 C 225.035156 512.519531 224.984375 512.542969 224.933594 512.542969 C 224.589844 512.542969 224.25 512.390625 224.015625 512.097656 C 223.839844 511.878906 223.691406 511.640625 223.53125 511.410156 C 222.019531 510.226562 220.683594 508.859375 219.476562 507.554688 C 217.398438 503.917969 216.417969 498.332031 217.21875 493.226562 C 219.03125 481.675781 228.660156 472.316406 238.730469 472.332031 C 240.644531 472.820312 244.835938 473.957031 246.332031 474.488281 C 245.339844 471.9375 245.152344 469.277344 243.574219 466.964844 L 238.722656 466.414062 C 236.273438 466.191406 234.082031 464.785156 232.871094 462.648438 L 232.546875 462.078125 C 231.652344 462.074219 230.828125 462.273438 230.1875 462.753906 C 221.355469 469.394531 201.945312 486.5625 210.191406 504.042969 C 213.363281 510.765625 217.855469 513.855469 222.585938 514.914062 Z M 198.601562 476.445312 L 189.53125 472.269531 L 182.65625 466.023438 C 182.894531 469.792969 183.363281 476.496094 183.695312 479.804688 L 183.777344 479.828125 L 196.167969 483.550781 C 197.339844 483.898438 198.574219 483.234375 198.914062 482.058594 L 199.792969 479.0625 C 200.097656 478.015625 199.589844 476.902344 198.601562 476.445312 Z M 202.050781 462.597656 L 195.632812 457.949219 L 193.375 457.519531 C 191.664062 457.199219 190.191406 456.289062 189.113281 455.042969 L 181.976562 451.898438 C 181.984375 453.195312 182.019531 454.511719 182.097656 455.867188 C 182.199219 457.664062 182.375 461.960938 182.46875 463.675781 L 194.519531 467.828125 L 202.835938 472.433594 C 203.847656 473.117188 205.21875 472.847656 205.898438 471.832031 L 207.628906 469.234375 C 208.238281 468.328125 208.085938 467.113281 207.277344 466.382812 Z M 404.746094 530.042969 L 404.726562 530.019531 C 404.242188 529.597656 403.632812 529.351562 402.992188 529.320312 L 353.027344 526.785156 C 351.996094 526.734375 351.019531 527.246094 350.472656 528.121094 L 349.394531 529.847656 L 405.679688 532.578125 C 405.816406 531.695312 405.542969 530.746094 404.746094 530.042969 Z M 258.625 592.886719 L 257.140625 593.453125 L 245.179688 598.066406 L 234.28125 602.273438 C 230.617188 603.683594 227.746094 606.628906 226.425781 610.324219 L 214.183594 644.5625 C 214.71875 644.757812 215.058594 645.289062 214.953125 645.867188 C 214.898438 646.132812 214.75 646.351562 214.554688 646.515625 C 220.933594 652.578125 228.246094 663.835938 233.003906 675.113281 L 262.28125 633.777344 C 249.292969 629.375 239.550781 628.972656 239.433594 628.96875 C 238.851562 628.953125 238.394531 628.464844 238.414062 627.886719 C 238.433594 627.3125 238.894531 626.863281 239.46875 626.863281 C 239.597656 626.871094 249.90625 627.269531 263.546875 631.992188 L 270.308594 622.441406 C 268.523438 621.316406 266.527344 620.566406 264.433594 620.253906 L 237.804688 616.246094 C 237.230469 616.160156 236.832031 615.621094 236.917969 615.050781 C 236.996094 614.53125 237.441406 614.152344 237.96875 614.152344 L 264.742188 618.171875 C 267.164062 618.535156 269.472656 619.414062 271.523438 620.722656 L 276.167969 614.164062 L 275.71875 613.648438 C 271.5 608.824219 265.460938 606.054688 259.136719 606.054688 L 238.144531 606.386719 C 237.550781 606.371094 237.085938 605.917969 237.074219 605.355469 C 237.070312 604.773438 237.535156 604.289062 238.113281 604.28125 L 258.917969 603.949219 C 265.984375 603.949219 272.6875 606.980469 277.304688 612.261719 L 277.421875 612.398438 L 280.890625 607.496094 L 267.523438 594.671875 C 265.15625 592.398438 261.6875 591.703125 258.625 592.886719 Z M 237.113281 586.613281 C 237.867188 586.804688 238.257812 587.601562 238 588.304688 C 237.976562 588.363281 237.960938 588.417969 237.933594 588.472656 C 237.65625 588.996094 237.058594 589.257812 236.484375 589.113281 L 219.046875 584.777344 C 218.3125 584.589844 217.921875 583.839844 218.128906 583.15625 C 218.15625 583.042969 218.207031 582.929688 218.273438 582.828125 L 218.304688 582.777344 C 218.605469 582.316406 219.167969 582.089844 219.703125 582.222656 L 237.113281 586.613281 " fill-opacity="1" fill-rule="nonzero"/><path fill="#a73c28" d="M 182.863281 469.195312 L 189.53125 472.269531 C 191.0625 470.714844 192.742188 469.230469 194.519531 467.828125 L 182.390625 461.109375 C 182.550781 463.910156 182.699219 466.609375 182.863281 469.195312 Z M 202.050781 462.597656 C 203.527344 461.695312 205.015625 460.835938 206.503906 460.019531 L 195.632812 457.949219 Z M 183.707031 479.953125 C 183.734375 479.910156 183.753906 479.871094 183.777344 479.828125 L 183.695312 479.804688 C 183.699219 479.855469 183.703125 479.902344 183.707031 479.953125 Z M 205.175781 437.601562 C 205.292969 438.074219 205.714844 438.402344 206.195312 438.402344 C 206.28125 438.402344 206.375 438.390625 206.453125 438.367188 C 207.695312 438.058594 208.917969 437.898438 210.085938 437.898438 C 215.671875 437.898438 218.539062 441.464844 218.660156 441.617188 C 218.863281 441.875 219.160156 442.023438 219.488281 442.023438 C 219.722656 442.023438 219.949219 441.945312 220.132812 441.796875 C 220.59375 441.441406 220.675781 440.777344 220.320312 440.320312 C 220.289062 440.277344 216.761719 435.800781 210.019531 435.800781 C 208.691406 435.800781 207.324219 435.980469 205.941406 436.328125 C 205.667969 436.398438 205.4375 436.570312 205.292969 436.808594 C 205.152344 437.050781 205.109375 437.335938 205.175781 437.601562 Z M 215.550781 445.464844 C 213.738281 444.492188 211.597656 445.746094 211.558594 447.800781 C 211.542969 448.765625 212.09375 449.703125 212.945312 450.160156 C 214.753906 451.128906 216.890625 449.875 216.929688 447.824219 C 216.949219 446.859375 216.398438 445.921875 215.550781 445.464844 Z M 234.222656 441.746094 C 234.335938 442.214844 234.757812 442.542969 235.242188 442.542969 C 235.328125 442.542969 235.414062 442.53125 235.5 442.511719 C 236.738281 442.199219 237.960938 442.039062 239.128906 442.039062 C 244.703125 442.039062 247.582031 445.605469 247.703125 445.757812 C 247.902344 446.015625 248.207031 446.164062 248.527344 446.164062 C 248.769531 446.164062 248.992188 446.085938 249.179688 445.9375 C 249.632812 445.582031 249.714844 444.917969 249.363281 444.460938 C 249.328125 444.417969 245.808594 439.941406 239.054688 439.941406 C 237.738281 439.941406 236.363281 440.121094 234.984375 440.46875 C 234.417969 440.609375 234.078125 441.183594 234.222656 441.746094 Z M 244.765625 453.085938 C 242.953125 452.117188 240.816406 453.371094 240.777344 455.425781 C 240.757812 456.386719 241.308594 457.328125 242.164062 457.78125 C 243.96875 458.75 246.109375 457.5 246.148438 455.445312 C 246.164062 454.480469 245.613281 453.542969 244.765625 453.085938 Z M 201.164062 426.835938 C 227.507812 430.171875 245.574219 434.050781 252.675781 437.804688 C 251.574219 442.140625 250.347656 446.945312 249.5625 451.984375 C 248.890625 456.292969 248.617188 460.773438 248.359375 465.167969 L 240.46875 464.457031 C 238.398438 460.214844 235.710938 456.078125 232.183594 452.28125 C 230.855469 450.847656 228.800781 450.351562 226.957031 450.996094 C 223.277344 452.28125 216.613281 454.804688 209.480469 458.445312 L 193.769531 455.453125 C 191.226562 454.96875 189.394531 452.75 189.378906 450.160156 C 189.355469 445.007812 189.757812 437.726562 191.847656 432.289062 C 193.132812 428.933594 196.339844 426.765625 200.011719 426.765625 C 200.394531 426.765625 200.777344 426.785156 201.164062 426.835938 Z M 200.019531 424.660156 C 200.488281 424.660156 200.960938 424.691406 201.433594 424.75 C 201.628906 424.773438 201.839844 424.800781 202.042969 424.828125 C 201.96875 424.773438 201.898438 424.71875 201.828125 424.660156 C 196.574219 420.300781 192.882812 421.332031 188.90625 424.527344 C 188.945312 424.660156 188.925781 424.582031 188.957031 424.714844 L 195.835938 425.5 C 197.136719 424.96875 198.539062 424.660156 200.019531 424.660156 Z M 254.085938 425.746094 C 253.503906 423.773438 252.332031 421.597656 250.152344 419.492188 C 247.308594 420.976562 243.011719 422.722656 236.957031 423.90625 C 231.890625 424.902344 225.699219 426.550781 219.714844 427.382812 C 232.6875 429.511719 246.183594 432.382812 253.167969 435.855469 C 254.03125 432.410156 254.75 429.308594 255.019531 426.703125 C 254.601562 426.570312 254.234375 426.253906 254.085938 425.746094 Z M 241.488281 466.667969 L 248.238281 467.273438 C 248.070312 470.070312 247.882812 472.808594 247.574219 475.425781 C 246.550781 474.910156 245.398438 474.417969 244.085938 473.945312 C 243.394531 471.519531 242.535156 469.085938 241.488281 466.667969 " fill-opacity="1" fill-rule="nonzero"/><path fill="#e8e3f4" d="M 782.554688 722.558594 C 782.554688 722.558594 779.070312 635.894531 755.160156 577.128906 C 734.832031 527.164062 718.109375 517.160156 713.554688 515.28125 L 713.648438 514.371094 L 663.875 497.359375 L 626.648438 474.300781 C 594.222656 489.628906 561.832031 491.785156 529.46875 480.632812 L 500.210938 501.921875 L 465.957031 515.398438 C 462.226562 516.863281 459.140625 519.332031 456.894531 522.382812 L 456.796875 521.847656 C 422.929688 566.992188 405.367188 622.28125 406.96875 678.691406 L 408.980469 749.449219 C 408.980469 749.449219 435.554688 804.398438 458.605469 807.570312 L 452.644531 841.757812 L 512.957031 841.339844 L 512.945312 841.785156 L 617.128906 841.785156 L 736.894531 843.085938 L 719.652344 771.570312 C 767.964844 761.519531 782.554688 722.558594 782.554688 722.558594 Z M 538.234375 465.34375 C 535.074219 456.613281 533.035156 442.203125 533.472656 433.179688 C 533.472656 433.179688 554.875 420.132812 564.410156 421.898438 C 585.378906 425.773438 599.625 430.695312 603.5 431.507812 C 607.726562 424.246094 616.355469 414.667969 621.828125 411.136719 C 622.460938 410.734375 623.300781 410.910156 623.707031 411.542969 C 624.117188 412.175781 623.933594 413.015625 623.300781 413.421875 C 618.601562 416.457031 609.195312 431.640625 604.363281 439.976562 C 605.394531 443.277344 609.3125 445.59375 607.648438 453.777344 C 614.101562 445.800781 615.257812 443.210938 615.300781 443.097656 C 615.574219 442.402344 616.359375 442.058594 617.0625 442.332031 C 617.757812 442.605469 618.105469 443.398438 617.832031 444.09375 C 617.609375 444.660156 613.019531 456.109375 603.503906 465.585938 C 601.257812 470.386719 597.390625 474.996094 590.980469 478.597656 C 574.382812 487.910156 546.652344 488.582031 538.234375 465.34375 " fill-opacity="1" fill-rule="nonzero"/><path fill="#15253d" d="M 754.144531 708.332031 C 739.605469 693.265625 719.617188 688.546875 711.261719 687.179688 C 715.707031 683.53125 733.769531 669.707031 749.25 672.757812 C 749.992188 672.902344 750.703125 672.425781 750.851562 671.683594 C 750.992188 670.949219 750.515625 670.234375 749.777344 670.089844 C 730.734375 666.355469 709.332031 685.210938 708.429688 686.015625 C 708.210938 686.214844 708.070312 686.464844 708.007812 686.730469 C 707.683594 686.695312 707.46875 686.675781 707.382812 686.667969 L 698.550781 686.390625 C 698.695312 686.148438 698.761719 685.863281 698.730469 685.566406 C 698.671875 684.949219 692.464844 623.703125 694.746094 602.507812 C 694.824219 601.761719 694.289062 601.089844 693.542969 601.011719 C 692.800781 600.925781 692.125 601.46875 692.046875 602.214844 C 689.730469 623.691406 695.773438 683.3125 696.03125 685.839844 C 696.046875 686.011719 696.09375 686.171875 696.167969 686.320312 L 632.671875 684.34375 C 631.890625 684.3125 631.292969 684.910156 631.269531 685.660156 C 631.242188 686.410156 631.835938 687.035156 632.582031 687.058594 L 707.230469 689.382812 C 707.496094 689.402344 734.507812 691.898438 752.191406 710.21875 C 752.457031 710.492188 752.8125 710.636719 753.167969 710.636719 C 753.503906 710.636719 753.847656 710.507812 754.109375 710.253906 C 754.652344 709.734375 754.667969 708.871094 754.144531 708.332031 Z M 655.328125 597.589844 C 655.328125 597.214844 655.027344 596.914062 654.648438 596.914062 L 641.820312 596.914062 C 641.441406 596.914062 641.140625 597.214844 641.140625 597.589844 C 641.140625 597.964844 641.441406 598.269531 641.820312 598.269531 L 654.648438 598.269531 C 655.027344 598.269531 655.328125 597.964844 655.328125 597.589844 Z M 623.707031 411.542969 C 623.300781 410.910156 622.546875 410.90625 621.828125 411.136719 C 615.945312 413.054688 606.605469 430.726562 602.382812 437.992188 C 598.507812 437.179688 586.519531 434.726562 565.546875 430.847656 C 556.019531 429.085938 533.472656 433.179688 533.472656 433.179688 C 533.035156 442.203125 535.074219 456.613281 538.234375 465.34375 C 546.652344 488.582031 574.382812 487.910156 590.980469 478.597656 C 597.390625 474.996094 601.257812 470.386719 603.503906 465.585938 C 613.019531 456.109375 617.609375 444.660156 617.832031 444.09375 C 618.105469 443.398438 617.757812 442.605469 617.0625 442.332031 C 616.359375 442.058594 615.574219 442.402344 615.300781 443.097656 C 615.257812 443.210938 614.757812 446.238281 608.304688 454.214844 C 609.964844 446.03125 607.476562 443.320312 606.449219 440.023438 C 611.273438 431.6875 618.601562 416.457031 623.300781 413.421875 C 623.933594 413.015625 624.117188 412.175781 623.707031 411.542969 Z M 567.164062 634.261719 C 566.855469 634.765625 566.199219 634.933594 565.6875 634.644531 L 564.820312 634.15625 L 554.25 651.808594 L 561.917969 652.945312 L 582.558594 619.523438 C 583.199219 618.484375 582.90625 617.121094 581.886719 616.441406 L 579.246094 614.683594 C 578.511719 614.195312 577.601562 614.203125 576.886719 614.605469 L 577.714844 615.152344 C 578.210938 615.484375 578.351562 616.148438 578.039062 616.652344 M 663.800781 497.335938 L 629.140625 485.488281 L 627.085938 497.546875 L 615.023438 568.367188 C 611.492188 589.105469 609.929688 610.125 610.363281 631.152344 L 614.683594 841.09375 L 548.945312 841.09375 L 553.351562 681.226562 L 535.144531 678.75 C 534.402344 678.644531 533.882812 677.960938 533.984375 677.21875 C 534.085938 676.472656 534.773438 675.960938 535.515625 676.054688 L 553.425781 678.492188 L 553.765625 666.285156 L 538.253906 663.632812 C 537.515625 663.507812 537.019531 662.804688 537.144531 662.066406 C 537.273438 661.324219 537.96875 660.828125 538.714844 660.957031 L 553.839844 663.542969 L 554.589844 636.125 C 555.253906 612.160156 552.949219 588.203125 547.734375 564.796875 L 536.644531 515.0625 L 531.015625 489.800781 L 516.496094 495.515625 C 515.210938 495.664062 513.84375 496.089844 512.378906 496.832031 C 511.671875 497.183594 510.988281 497.566406 510.300781 497.953125 L 501.347656 501.472656 C 498.554688 501.945312 495.691406 501.902344 492.863281 501.355469 C 483.980469 499.628906 475.996094 493.210938 473.304688 484.4375 C 470.425781 475.054688 473.539062 464.390625 480.246094 457.402344 C 484.785156 452.675781 493.679688 451.148438 495.191406 444.035156 C 496.511719 437.8125 489.753906 430.847656 488.609375 424.789062 C 486.507812 413.671875 496.476562 409.058594 502.671875 401.957031 C 508.125 395.707031 507.28125 387.261719 508.164062 379.566406 C 508.746094 374.484375 510.0625 369.617188 512.253906 364.988281 C 521.621094 345.195312 543.648438 335.0625 564.210938 340.398438 C 577.910156 334.269531 593.402344 332.289062 607.675781 336.515625 C 619.144531 339.917969 629.773438 347.003906 636.296875 357.148438 C 640.023438 362.933594 641.386719 369.296875 643.277344 375.808594 C 645.757812 384.359375 651.386719 387.273438 656.816406 393.472656 C 665.042969 402.882812 658.855469 412.285156 657.925781 422.910156 C 656.9375 434.144531 670.351562 441.398438 667.726562 452.800781 C 665.996094 460.332031 653.390625 466.617188 662.160156 474.445312 C 665.53125 477.457031 668.257812 478.652344 668.921875 483.648438 C 669.636719 489.023438 667.25 493.511719 663.800781 497.335938 Z M 718.835938 770.011719 C 687.953125 772.984375 658.304688 767.320312 653.015625 766.234375 L 647.234375 741.175781 C 647.0625 740.445312 646.324219 739.988281 645.605469 740.160156 C 644.871094 740.328125 644.414062 741.058594 644.585938 741.789062 L 650.5625 767.6875 C 650.679688 768.195312 651.078125 768.59375 651.585938 768.707031 C 651.859375 768.769531 673.679688 773.578125 700.328125 773.578125 C 706.398438 773.578125 712.722656 773.332031 719.097656 772.71875 C 719.839844 772.644531 720.390625 771.984375 720.316406 771.234375 C 720.246094 770.492188 719.597656 769.925781 718.835938 770.011719 Z M 644.613281 601.1875 C 644.234375 601.1875 643.933594 601.492188 643.933594 601.867188 C 643.933594 602.238281 644.234375 602.546875 644.613281 602.546875 L 651.855469 602.546875 C 652.230469 602.546875 652.535156 602.238281 652.535156 601.867188 C 652.535156 601.492188 652.230469 601.1875 651.855469 601.1875 Z M 645.285156 563.617188 L 645.285156 570.703125 L 651.183594 570.703125 L 651.183594 563.617188 Z M 459.707031 707.109375 C 460.089844 706.601562 460.070312 705.894531 459.65625 705.40625 C 449.828125 693.886719 425.695312 689.210938 424.671875 689.015625 C 423.929688 688.882812 423.226562 689.363281 423.085938 690.097656 C 422.945312 690.835938 423.429688 691.546875 424.167969 691.6875 C 424.375 691.726562 441.867188 695.113281 452.710938 702.8125 C 447.371094 701.414062 439.558594 700.378906 432.425781 703.269531 C 426.355469 705.730469 421.894531 710.605469 419.167969 717.757812 C 418.894531 718.457031 419.25 719.242188 419.949219 719.507812 C 420.109375 719.574219 420.269531 719.601562 420.433594 719.601562 C 420.984375 719.601562 421.496094 719.265625 421.703125 718.726562 C 424.152344 712.3125 428.097656 707.960938 433.433594 705.792969 C 444.4375 701.328125 457.917969 707.457031 458.050781 707.519531 C 458.632812 707.785156 459.320312 707.621094 459.707031 707.109375 Z M 546.503906 716.960938 L 492.042969 736.050781 C 491.335938 736.300781 490.964844 737.074219 491.210938 737.78125 C 491.40625 738.339844 491.929688 738.6875 492.492188 738.6875 C 492.644531 738.6875 492.792969 738.667969 492.945312 738.613281 L 547.402344 719.519531 C 548.109375 719.273438 548.484375 718.5 548.238281 717.792969 C 547.988281 717.085938 547.210938 716.707031 546.503906 716.960938 Z M 470.867188 755.761719 C 470.132812 755.601562 469.414062 756.066406 469.25 756.796875 L 458.867188 803.898438 C 458.785156 803.882812 458.707031 803.875 458.625 803.875 C 457.640625 803.875 456.765625 803.460938 455.949219 802.605469 C 454.421875 801.015625 453.304688 798.175781 452.492188 794.761719 C 452.75 795.011719 453.023438 795.230469 453.308594 795.390625 C 461.179688 799.707031 468.734375 752.636719 468.734375 752.636719 L 447.996094 750.464844 C 447.996094 750.464844 447.289062 761.679688 447.761719 772.953125 C 447.757812 781.347656 448.445312 798.710938 453.984375 804.480469 C 455.238281 805.789062 456.679688 806.492188 458.273438 806.585938 L 455.632812 818.554688 C 455.476562 819.285156 455.9375 820.007812 456.667969 820.171875 C 456.765625 820.195312 456.867188 820.203125 456.960938 820.203125 C 457.585938 820.203125 458.152344 819.773438 458.289062 819.136719 L 471.90625 757.378906 C 472.066406 756.648438 471.601562 755.925781 470.867188 755.761719 Z M 695.941406 576.15625 C 695.980469 576.164062 696.019531 576.164062 696.054688 576.164062 C 696.753906 576.164062 697.351562 575.625 697.40625 574.914062 C 700.324219 538.90625 714.941406 518.027344 715.089844 517.820312 C 715.523438 517.207031 715.382812 516.359375 714.769531 515.921875 C 714.160156 515.488281 713.3125 515.628906 712.878906 516.242188 C 712.257812 517.109375 697.683594 537.890625 694.699219 574.695312 C 694.640625 575.441406 695.195312 576.097656 695.941406 576.15625 Z M 456.328125 525.550781 C 455.625 525.808594 455.261719 526.589844 455.519531 527.292969 C 455.628906 527.589844 466.496094 557.53125 472.386719 600.222656 C 472.480469 600.90625 473.0625 601.394531 473.730469 601.394531 C 473.789062 601.394531 473.855469 601.390625 473.917969 601.382812 C 474.660156 601.28125 475.183594 600.597656 475.078125 599.855469 C 469.152344 556.875 458.183594 526.660156 458.070312 526.359375 C 457.8125 525.652344 457.035156 525.292969 456.328125 525.550781 Z M 517.066406 739.722656 L 495.648438 748.191406 C 494.949219 748.464844 494.605469 749.253906 494.882812 749.949219 C 495.097656 750.488281 495.605469 750.808594 496.144531 750.808594 C 496.3125 750.808594 496.484375 750.777344 496.644531 750.714844 L 518.0625 742.246094 C 518.761719 741.972656 519.105469 741.183594 518.832031 740.484375 C 518.550781 739.785156 517.765625 739.445312 517.066406 739.722656 Z M 480.054688 630.214844 C 480.109375 630.574219 485.390625 665.78125 486.871094 680.585938 C 486.945312 681.332031 486.402344 682 485.65625 682.070312 C 485.609375 682.074219 485.566406 682.078125 485.519531 682.078125 C 484.828125 682.078125 484.238281 681.554688 484.167969 680.855469 C 482.695312 666.121094 477.425781 630.976562 477.367188 630.621094 C 477.257812 629.878906 477.769531 629.1875 478.511719 629.074219 C 479.246094 628.976562 479.945312 629.476562 480.054688 630.214844 " fill-opacity="1" fill-rule="nonzero"/><path fill="#454582" d="M 655.328125 597.589844 C 655.328125 597.214844 655.027344 596.914062 654.648438 596.914062 L 641.820312 596.914062 C 641.441406 596.914062 641.140625 597.214844 641.140625 597.589844 C 641.140625 597.964844 641.441406 598.269531 641.820312 598.269531 L 654.648438 598.269531 C 655.027344 598.269531 655.328125 597.964844 655.328125 597.589844 Z M 652.535156 601.867188 C 652.535156 601.492188 652.230469 601.1875 651.855469 601.1875 L 644.613281 601.1875 C 644.234375 601.1875 643.933594 601.492188 643.933594 601.867188 C 643.933594 602.238281 644.234375 602.546875 644.613281 602.546875 L 651.855469 602.546875 C 652.230469 602.546875 652.535156 602.238281 652.535156 601.867188 Z M 641.636719 589.15625 L 654.835938 589.15625 L 654.835938 575.960938 L 641.636719 575.960938 Z M 667.429688 567.164062 L 667.429688 626.550781 L 629.871094 626.550781 L 613.335938 679.46875 C 613.15625 680.046875 612.617188 680.417969 612.039062 680.417969 C 611.902344 680.417969 611.769531 680.402344 611.632812 680.359375 C 611.53125 680.328125 611.457031 680.265625 611.375 680.214844 C 610.835938 679.90625 610.546875 679.273438 610.742188 678.65625 L 611.300781 676.855469 L 629.039062 620.113281 L 629.039062 567.164062 L 645.285156 567.164062 L 645.285156 570.703125 L 651.183594 570.703125 L 651.183594 567.164062 Z M 505.980469 551.847656 L 519.433594 556.664062 L 546.105469 650.855469 C 546.914062 650.785156 547.746094 650.8125 548.582031 650.96875 L 548.980469 651.027344 L 522.578125 557.792969 L 545.832031 566.121094 C 546.535156 566.375 547.316406 566.003906 547.570312 565.300781 C 547.820312 564.59375 547.453125 563.816406 546.746094 563.566406 L 508.140625 549.730469 L 525.832031 494.871094 C 526.0625 494.15625 525.667969 493.386719 524.957031 493.160156 C 524.242188 492.925781 523.476562 493.324219 523.246094 494.035156 L 505.144531 550.148438 C 504.921875 550.847656 505.292969 551.597656 505.980469 551.847656 Z M 660.453125 738.304688 L 641.328125 725.992188 L 588.824219 692.199219 C 587.277344 691.203125 585.507812 690.605469 583.675781 690.46875 L 533.496094 686.566406 L 485.792969 682.863281 L 428.738281 678.429688 C 426.34375 678.242188 425.265625 681.371094 427.273438 682.699219 L 452.421875 699.355469 C 452.921875 699.667969 453.410156 699.992188 453.890625 700.324219 L 470.335938 711.214844 L 471.613281 710.699219 L 488.292969 722.140625 L 487.675781 722.699219 L 489.523438 723.917969 C 489.820312 723.828125 490.132812 723.726562 490.457031 723.625 L 498.460938 729.113281 L 510.03125 729.746094 L 546.503906 716.960938 C 547.210938 716.707031 547.988281 717.085938 548.238281 717.792969 C 548.484375 718.5 548.109375 719.273438 547.402344 719.519531 L 517.140625 730.128906 L 537.839844 731.257812 L 551.933594 732.574219 L 612.566406 738.246094 L 644.574219 741.242188 C 644.667969 740.71875 645.058594 740.285156 645.605469 740.160156 C 646.324219 739.988281 647.0625 740.445312 647.234375 741.175781 L 647.304688 741.496094 L 658.972656 742.585938 C 661.40625 742.8125 662.507812 739.625 660.453125 738.304688 Z M 564.59375 634.027344 L 564.820312 634.15625 L 565.6875 634.644531 C 566.199219 634.933594 566.855469 634.765625 567.164062 634.261719 L 578.039062 616.652344 C 578.351562 616.148438 578.210938 615.484375 577.714844 615.152344 L 576.886719 614.605469 L 576.433594 614.304688 C 575.910156 613.953125 575.199219 614.113281 574.878906 614.652344 L 564.191406 632.5 C 563.875 633.035156 564.054688 633.722656 564.59375 634.027344 Z M 539.980469 501.757812 C 541.714844 501.300781 543.726562 494.617188 545.710938 485.300781 C 538.34375 487.03125 533.550781 488.941406 531.078125 490.089844 L 534.144531 503.851562 C 535.875 503.03125 537.808594 502.324219 539.980469 501.757812 Z M 647.554688 560.867188 L 646.691406 563.617188 L 647.554688 563.617188 Z M 627.605469 494.480469 L 629.140625 485.488281 C 623.222656 484.527344 617.625 483.78125 612.285156 483.1875 C 616.34375 488.570312 622.054688 492.136719 627.605469 494.480469 Z M 641.003906 492.328125 C 640.714844 491.636719 641.035156 490.835938 641.726562 490.546875 C 642.417969 490.25 643.214844 490.578125 643.507812 491.269531 L 665.257812 542.730469 C 665.53125 543.367188 665.273438 544.105469 664.675781 544.445312 L 653.105469 550.960938 C 653.253906 551.261719 653.292969 551.621094 653.183594 551.964844 L 649.542969 563.617188 L 648.914062 563.617188 L 648.914062 559.09375 C 648.914062 558.746094 648.648438 558.472656 648.316406 558.429688 L 650.128906 552.636719 L 618.679688 570.34375 C 618.023438 570.710938 617.203125 570.480469 616.832031 569.824219 C 616.460938 569.175781 616.695312 568.34375 617.347656 567.976562 L 662.285156 542.671875 L 641.003906 492.328125 " fill-opacity="1" fill-rule="nonzero"/><path fill="#a73c28" d="M 648.316406 558.429688 C 648.289062 558.429688 648.261719 558.414062 648.234375 558.414062 C 647.859375 558.414062 647.554688 558.71875 647.554688 559.09375 L 647.554688 563.617188 L 648.914062 563.617188 L 648.914062 559.09375 C 648.914062 558.746094 648.648438 558.472656 648.316406 558.429688 Z M 548.183594 717.699219 C 548.199219 717.730469 548.222656 717.757812 548.238281 717.792969 C 548.484375 718.5 548.109375 719.273438 547.402344 719.519531 L 492.945312 738.613281 C 492.792969 738.667969 492.644531 738.6875 492.492188 738.6875 C 491.929688 738.6875 491.40625 738.339844 491.210938 737.78125 C 490.964844 737.074219 491.335938 736.300781 492.042969 736.050781 L 546.503906 716.960938 C 546.800781 716.855469 547.105469 716.878906 547.378906 716.972656 L 544.941406 714.175781 C 543.726562 712.773438 541.945312 712.019531 540.085938 712.101562 C 526.152344 712.6875 500.351562 720.472656 489.523438 723.917969 C 488.082031 724.378906 486.910156 724.761719 486.058594 725.035156 C 485.078125 725.355469 484.523438 725.542969 484.523438 725.542969 L 486.195312 724.035156 L 487.675781 722.699219 L 502.679688 709.148438 C 505 707.0625 505.328125 703.550781 503.449219 701.0625 C 502.371094 699.636719 500.476562 699.113281 498.820312 699.777344 L 470.335938 711.214844 L 459.453125 715.585938 C 459.453125 715.585938 447.984375 724.542969 448 750.464844 C 448 754.289062 448.25 758.476562 448.828125 763.066406 C 449.398438 767.613281 460.875 761.460938 467.9375 757.210938 C 468.507812 756.867188 469.042969 756.539062 469.546875 756.222656 C 469.738281 756 469.988281 755.84375 470.277344 755.773438 C 472.171875 754.585938 473.402344 753.765625 473.402344 753.765625 L 481.820312 756.917969 L 489.054688 759.621094 C 493.59375 761.320312 498.699219 760.261719 502.191406 756.902344 L 516.972656 742.679688 L 496.644531 750.714844 C 496.484375 750.777344 496.3125 750.808594 496.144531 750.808594 C 495.605469 750.808594 495.097656 750.488281 494.882812 749.949219 C 494.605469 749.253906 494.949219 748.464844 495.648438 748.191406 L 517.066406 739.722656 C 517.765625 739.445312 518.550781 739.785156 518.832031 740.484375 C 518.890625 740.636719 518.910156 740.792969 518.910156 740.945312 L 535.984375 731.085938 L 548.964844 723.589844 C 550.792969 722.535156 550.992188 719.964844 549.347656 718.640625 Z M 631.460938 693.007812 C 631.460938 693.007812 620.148438 690.574219 611.53125 688.054688 C 607.03125 686.738281 603.269531 685.398438 602.242188 684.375 C 600.742188 682.875 594.394531 672.546875 589.75 664.855469 C 586.484375 659.441406 580.976562 655.773438 574.722656 654.847656 L 561.917969 652.945312 L 554.25 651.808594 L 554.160156 651.796875 L 548.980469 651.027344 L 548.582031 650.96875 C 547.746094 650.8125 546.914062 650.785156 546.105469 650.855469 C 541.917969 651.210938 538.355469 654.433594 537.792969 658.820312 L 537.460938 661.433594 C 537.757812 661.078125 538.21875 660.867188 538.714844 660.957031 L 575.574219 667.265625 C 576.3125 667.390625 576.808594 668.089844 576.683594 668.835938 C 576.570312 669.496094 575.996094 669.964844 575.347656 669.964844 C 575.273438 669.964844 575.191406 669.957031 575.117188 669.9375 L 538.253906 663.632812 C 537.617188 663.523438 537.191406 662.984375 537.152344 662.367188 L 537.082031 662.351562 C 532.792969 661.597656 528.75 664.601562 528.222656 668.921875 L 528.210938 669.023438 C 527.746094 672.871094 530.261719 676.40625 533.988281 677.300781 C 533.992188 677.273438 533.980469 677.246094 533.984375 677.21875 C 534.085938 676.472656 534.773438 675.960938 535.515625 676.054688 L 574.53125 681.367188 C 575.277344 681.472656 575.796875 682.15625 575.691406 682.898438 C 575.601562 683.578125 575.019531 684.070312 574.347656 684.070312 C 574.289062 684.070312 574.226562 684.066406 574.167969 684.058594 L 535.144531 678.75 C 534.695312 678.683594 534.351562 678.402344 534.152344 678.027344 L 533.136719 681.554688 C 532.644531 683.269531 532.8125 685.027344 533.496094 686.566406 L 583.675781 690.46875 C 585.507812 690.605469 587.277344 691.203125 588.824219 692.199219 L 641.328125 725.992188 C 639.007812 716.703125 636.746094 707.882812 634.941406 700.925781 Z M 544.582031 550.660156 L 534.144531 503.851562 C 535.875 503.03125 537.808594 502.324219 539.980469 501.757812 C 541.714844 501.300781 543.726562 494.617188 545.710938 485.300781 C 546.195312 483.03125 546.675781 480.613281 547.152344 478.085938 C 559.257812 487.753906 578.339844 485.6875 590.980469 478.597656 C 597.390625 474.996094 601.257812 470.386719 603.503906 465.585938 C 604.429688 464.664062 605.296875 463.722656 606.125 462.773438 C 606.417969 467.171875 606.9375 471.09375 607.78125 474.09375 C 608.761719 477.59375 610.332031 480.601562 612.285156 483.1875 C 616.34375 488.570312 622.054688 492.136719 627.605469 494.480469 L 618.558594 547.625 C 608.984375 554.992188 596.117188 560.195312 578.828125 560.195312 C 565.59375 560.195312 553.839844 556.375 544.582031 550.660156 " fill-opacity="1" fill-rule="nonzero"/><path fill="#e24e34" d="M 631.601562 431.828125 C 628.917969 436.824219 624.601562 440.128906 620.359375 440.957031 C 620.269531 440.972656 620.183594 440.996094 620.09375 441.011719 C 618.851562 441.222656 617.625 441.222656 616.445312 440.980469 C 616.210938 441.503906 615.972656 442.023438 615.730469 442.546875 C 615.703125 442.597656 615.660156 442.636719 615.636719 442.695312 C 615.632812 442.710938 615.582031 442.847656 615.480469 443.085938 C 613.867188 446.515625 612.117188 449.867188 610.234375 453.089844 C 609.0625 454.945312 607.707031 456.914062 606.148438 458.886719 C 607.707031 450.6875 605.441406 443.304688 604.375 440.023438 C 605.582031 437.871094 607.378906 434.957031 609.023438 432.226562 C 613.808594 424.28125 619.792969 415.222656 623.265625 412.917969 C 623.710938 412.625 623.914062 412.109375 623.84375 411.613281 C 625.589844 411.488281 627.289062 411.792969 628.820312 412.613281 C 629.785156 413.128906 630.609375 413.824219 631.3125 414.640625 C 634.695312 418.5625 634.976562 425.535156 631.601562 431.828125 Z M 598.640625 419.554688 C 598.375 419.847656 598.011719 420.003906 597.640625 420.007812 C 597.316406 420.011719 596.988281 419.894531 596.71875 419.660156 C 590.058594 413.714844 583.558594 416.496094 583.28125 416.617188 C 582.59375 416.917969 581.796875 416.617188 581.488281 415.933594 C 581.179688 415.25 581.480469 414.449219 582.160156 414.140625 C 582.5 413.988281 590.507812 410.472656 598.53125 417.636719 C 599.089844 418.136719 599.140625 418.992188 598.640625 419.554688 Z M 591.523438 428.132812 C 591.34375 429.765625 589.882812 430.945312 588.253906 430.769531 C 586.617188 430.59375 585.441406 429.128906 585.617188 427.5 C 585.792969 425.867188 587.253906 424.691406 588.882812 424.863281 C 590.519531 425.039062 591.699219 426.503906 591.523438 428.132812 Z M 563.191406 413.429688 C 562.921875 413.742188 562.546875 413.90625 562.164062 413.914062 C 561.851562 413.917969 561.53125 413.808594 561.273438 413.589844 C 554.378906 407.796875 547.820312 410.90625 547.757812 410.941406 C 547.082031 411.273438 546.269531 410.996094 545.9375 410.320312 C 545.605469 409.648438 545.882812 408.832031 546.558594 408.503906 C 546.894531 408.339844 554.792969 404.589844 563.023438 411.511719 C 563.597656 411.996094 563.671875 412.851562 563.191406 413.429688 Z M 558.269531 424.558594 C 558.09375 426.1875 556.625 427.367188 554.996094 427.195312 C 553.363281 427.019531 552.183594 425.550781 552.359375 423.921875 C 552.535156 422.289062 554 421.113281 555.632812 421.289062 C 557.261719 421.460938 558.441406 422.925781 558.269531 424.558594 Z M 614.617188 410.058594 C 603.957031 407.203125 589.324219 404.917969 586.496094 387.585938 C 584.472656 375.199219 573.550781 373.632812 568.105469 373.636719 C 558.007812 387.292969 544.292969 393.9375 534.246094 397.128906 C 533.125 407.839844 532.148438 420.773438 533.546875 433.617188 C 537.636719 432.859375 557.253906 429.617188 565.734375 431.078125 C 565.835938 431.09375 565.832031 431.089844 565.910156 431.105469 C 566.476562 429.523438 567.132812 427.773438 567.914062 425.808594 C 568.1875 425.109375 568.976562 424.769531 569.675781 425.042969 C 570.375 425.320312 570.714844 426.109375 570.441406 426.808594 C 569.828125 428.355469 569.222656 429.976562 568.652344 431.582031 C 568.59375 431.570312 598.769531 437.550781 602.480469 438.273438 C 604.050781 435.496094 606.574219 430.914062 609.1875 426.753906 C 612.46875 421.523438 616.144531 416.152344 619.207031 412.925781 C 619.25 412.878906 619.296875 412.828125 619.339844 412.78125 C 618.101562 411.515625 616.546875 410.574219 614.617188 410.058594 " fill-opacity="1" fill-rule="nonzero"/></svg>